<svg xmlns="http://www.w3.org/2000/svg" version="1.0" width="280.000000pt" height="280.000000pt" viewBox="0 0 280.000000 280.000000" preserveAspectRatio="xMidYMid meet">
<g transform="translate(0.000000,280.000000) scale(0.100000,-0.100000)" fill="#000000" stroke="none">
<path d="M0 1400 l0 -1400 1400 0 1400 0 0 1400 0 1400 -1400 0 -1400 0 0 -1400z m693 829 c128 -66 138 -230 19 -297 -70 -39 -148 -23 -197 42 -66 87 -28 220 75 259 26 10 80 7 103 -4z m657 -299 l0 -140 110 0 110 0 0 -130 0 -130 -110 0 -110 0 0 -242 c1 -184 4 -247 14 -260 20 -27 61 -38 137 -38 l69 0 0 -119 0 -120 -46 -7 c-73 -11 -203 2 -266 25 -57 22 -104 64 -132 119 -29 56 -36 136 -36 387 l0 255 -85 0 -85 0 0 130 0 130 85 0 85 0 0 103 0 103 113 36 c61 20 120 36 130 37 15 1 17 -12 17 -139z m855 -132 c68 -17 134 -59 196 -125 32 -35 59 -67 59 -71 0 -4 -48 -35 -107 -69 l-107 -61 -40 45 c-47 51 -104 70 -163 54 -50 -14 -73 -38 -73 -77 0 -47 33 -68 169 -110 187 -59 267 -109 313 -197 28 -55 35 -159 15 -228 -42 -142 -162 -223 -352 -236 -190 -13 -355 65 -432 204 l-22 39 102 60 c56 32 106 60 112 61 5 2 21 -15 34 -36 29 -47 80 -78 146 -86 131 -17 218 87 122 145 -17 11 -90 39 -161 62 -168 54 -239 99 -280 181 -36 71 -41 162 -13 244 57 166 269 254 482 201z m-1437 -530 l2 -518 -130 0 -130 0 0 520 0 521 128 -3 127 -3 3 -517z"/>
</g>
</svg>